{
	"asset":{
		"generator":"Khronos glTF Blender I/O v3.5.30",
		"version":"2.0"
	},
	"extensionsUsed":[
		"KHR_materials_specular",
		"KHR_materials_ior"
	],
	"scene":0,
	"scenes":[
		{
			"name":"Scene",
			"nodes":[
				0
			]
		}
	],
	"nodes":[
		{
			"mesh":0,
			"name":"TQ_ARD-node"
		}
	],
	"materials":[
		{
			"doubleSided":true,
			"extensions":{
				"KHR_materials_specular":{
					"specularColorFactor":[
						0,
						0,
						0
					]
				},
				"KHR_materials_ior":{
					"ior":0
				}
			},
			"name":"A",
			"pbrMetallicRoughness":{
				"baseColorTexture":{
					"index":0
				},
				"metallicFactor":0,
				"roughnessFactor":0.5
			}
		},
		{
			"doubleSided":true,
			"extensions":{
				"KHR_materials_specular":{
					"specularColorFactor":[
						0,
						0,
						0
					]
				},
				"KHR_materials_ior":{
					"ior":0
				}
			},
			"name":"B",
			"pbrMetallicRoughness":{
				"baseColorFactor":[
					0.996078372001648,
					0.9019607901573181,
					0.6627451181411743,
					1
				],
				"metallicFactor":0,
				"roughnessFactor":0.5
			}
		},
		{
			"doubleSided":true,
			"extensions":{
				"KHR_materials_specular":{
					"specularColorFactor":[
						0,
						0,
						0
					]
				},
				"KHR_materials_ior":{
					"ior":0
				}
			},
			"name":"C",
			"pbrMetallicRoughness":{
				"baseColorTexture":{
					"index":1
				},
				"metallicFactor":0,
				"roughnessFactor":0.5
			}
		}
	],
	"meshes":[
		{
			"name":"da",
			"primitives":[
				{
					"attributes":{
						"POSITION":0,
						"TEXCOORD_0":1,
						"NORMAL":2
					},
					"indices":3,
					"material":0
				},
				{
					"attributes":{
						"POSITION":4,
						"TEXCOORD_0":5,
						"NORMAL":6
					},
					"indices":7,
					"material":1
				},
				{
					"attributes":{
						"POSITION":8,
						"TEXCOORD_0":9,
						"NORMAL":10
					},
					"indices":11,
					"material":2
				}
			]
		}
	],
	"textures":[
		{
			"sampler":0,
			"source":0
		},
		{
			"sampler":0,
			"source":1
		}
	],
	"images":[
		{
			"bufferView":4,
			"mimeType":"image/jpeg",
			"name":"1_Mesa de trabajo 1"
		},
		{
			"bufferView":13,
			"mimeType":"image/png",
			"name":"TQ_ARD-I1"
		}
	],
	"accessors":[
		{
			"bufferView":0,
			"componentType":5126,
			"count":2083,
			"max":[
				0.4548202455043793,
				0.18613699078559875,
				0.14992552995681763
			],
			"min":[
				-0.5283547639846802,
				0.00254947692155838,
				-0.15196800231933594
			],
			"type":"VEC3"
		},
		{
			"bufferView":1,
			"componentType":5126,
			"count":2083,
			"type":"VEC2"
		},
		{
			"bufferView":2,
			"componentType":5126,
			"count":2083,
			"type":"VEC3"
		},
		{
			"bufferView":3,
			"componentType":5123,
			"count":5352,
			"type":"SCALAR"
		},
		{
			"bufferView":5,
			"componentType":5126,
			"count":2030,
			"max":[
				0.45287805795669556,
				0.18613699078559875,
				0.1483379602432251
			],
			"min":[
				-0.5264124870300293,
				0.004601918160915375,
				-0.1493593454360962
			],
			"type":"VEC3"
		},
		{
			"bufferView":6,
			"componentType":5126,
			"count":2030,
			"type":"VEC2"
		},
		{
			"bufferView":7,
			"componentType":5126,
			"count":2030,
			"type":"VEC3"
		},
		{
			"bufferView":8,
			"componentType":5123,
			"count":5352,
			"type":"SCALAR"
		},
		{
			"bufferView":9,
			"componentType":5126,
			"count":3672,
			"max":[
				0.4548202455043793,
				0.18613699078559875,
				0.14992552995681763
			],
			"min":[
				-0.5283547639846802,
				0.00254947692155838,
				-0.15196800231933594
			],
			"type":"VEC3"
		},
		{
			"bufferView":10,
			"componentType":5126,
			"count":3672,
			"type":"VEC2"
		},
		{
			"bufferView":11,
			"componentType":5126,
			"count":3672,
			"type":"VEC3"
		},
		{
			"bufferView":12,
			"componentType":5123,
			"count":8292,
			"type":"SCALAR"
		}
	],
	"bufferViews":[
		{
			"buffer":0,
			"byteLength":24996,
			"byteOffset":0,
			"target":34962
		},
		{
			"buffer":0,
			"byteLength":16664,
			"byteOffset":24996,
			"target":34962
		},
		{
			"buffer":0,
			"byteLength":24996,
			"byteOffset":41660,
			"target":34962
		},
		{
			"buffer":0,
			"byteLength":10704,
			"byteOffset":66656,
			"target":34963
		},
		{
			"buffer":0,
			"byteLength":601289,
			"byteOffset":77360
		},
		{
			"buffer":0,
			"byteLength":24360,
			"byteOffset":678652,
			"target":34962
		},
		{
			"buffer":0,
			"byteLength":16240,
			"byteOffset":703012,
			"target":34962
		},
		{
			"buffer":0,
			"byteLength":24360,
			"byteOffset":719252,
			"target":34962
		},
		{
			"buffer":0,
			"byteLength":10704,
			"byteOffset":743612,
			"target":34963
		},
		{
			"buffer":0,
			"byteLength":44064,
			"byteOffset":754316,
			"target":34962
		},
		{
			"buffer":0,
			"byteLength":29376,
			"byteOffset":798380,
			"target":34962
		},
		{
			"buffer":0,
			"byteLength":44064,
			"byteOffset":827756,
			"target":34962
		},
		{
			"buffer":0,
			"byteLength":16584,
			"byteOffset":871820,
			"target":34963
		},
		{
			"buffer":0,
			"byteLength":767,
			"byteOffset":888404
		}
	],
	"samplers":[
		{
			"magFilter":9729,
			"minFilter":9987
		}
	],
	"buffers":[
		{
			"byteLength":889172,
			"uri":"data:application/octet-stream;base64,"
		}
	]
}
